<svg width="545" height="533" viewBox="0 0 545 533" fill="none" xmlns="http://www.w3.org/2000/svg">
<path d="M392.9 152C387.9 152 383.1 149.6 380 145.6C373.2 137.1 363.1 117.4 384.4 91.4C384.4 91.4 401.9 65.9 420.1 96.1C420.1 96.1 430.5 110.1 420.1 133C420 133 409.5 152.1 392.9 152Z" fill="#015681"/>
<path d="M439.7 155.9L437.6 206.8C437.6 206.8 413 231.7 400.9 245.2L371.4 187.7C371.5 187.7 403 172.5 439.7 155.9Z" fill="#00537C"/>
<path d="M313.4 272.9C313.4 272.9 373.7 277.4 387.2 269.1C387.2 269.1 391.7 255.2 401.1 245.2L373.4 184.6L358.9 133.7L320.8 148.2L322.5 225.1C322.4 225.1 317.2 265.3 313.4 272.9Z" fill="#015681"/>
<path d="M437.699 206.8C437.699 206.8 466.399 178.8 544.999 109.2L439.699 155.9L437.699 206.8Z" fill="#057DBC"/>
<path d="M320.599 148.2L317.199 0L358.699 133.7L320.599 148.2Z" fill="#0270A9"/>
<path d="M315.4 202.3L262.1 186.3C262.1 186.3 249.8 180 244.2 191.2L239.1 203.3C237 208.3 232 211.6 226.6 211.4C223.2 211.2 218.8 210.3 213 208.3L184.7 196.7C183.6 196.3 182.6 195.9 181.4 195.5C173.6 193.1 139.9 182.8 95.5996 173.4C95.5996 173.4 103.1 180.2 95.5996 203.3C95.5996 203.3 104.9 202.5 118.2 207.2L163.4 218.1C163.4 218.1 178.5 222 194 227.2L213.7 233.2C213.7 233.2 224.9 240 234 220.2L236.2 215.4C237.9 211.7 241.2 208.9 245.1 208.1C247.6 207.6 250.7 207.6 254.7 208.5C254.7 208.5 276.9 209.3 314.1 224.9L315.4 202.3Z" fill="#E01E38"/>
<path d="M292 325.1L251 382.7L278.4 413.8L344.1 355.9L292 325.1Z" fill="#00486C"/>
<path d="M386.799 308.6C386.799 308.6 390.799 325.2 427.499 351.5L411.299 394.1C411.299 394.1 367.399 367.2 290.199 327.7C290.199 327.7 294.599 322.2 302.899 310L338.999 301.4L386.799 308.6Z" fill="#015681"/>
<path d="M395.9 268.8C395.9 268.8 394.1 296.1 272.2 276.7C272.2 276.7 258 276.6 170.2 252.2L159 249.3C159 249.3 152.5 247.2 147.8 258.6L140.8 274C140.8 274 139.2 280.9 121.1 276.8L108.6 274C108.6 274 73.8 258.3 0 247.9C0 247.9 3.4 254.7 1.3 277.2C1.3 277.2 79.7 287.2 113.5 300.4C116.9 301.7 120.6 302.3 124.1 301.6C128.4 300.8 133.6 298.2 137.1 291.1L143.3 279.7C143.3 279.7 145 271.7 161.6 275.5C163.1 275.8 164.6 276.2 166.1 276.3C174 277.2 202.2 281.7 239.3 298C242.6 299.5 246 300.7 249.6 301.6C257.8 303.7 274.5 307.1 302.8 309.6C302.8 309.6 376.8 314.5 386.7 308.3C386.8 308.6 397.9 305.2 395.9 268.8Z" fill="#E01E38"/>
<path d="M367.4 504.7L470.8 386.3C470.8 386.3 431.8 355.5 426.3 350.1L367.4 504.7Z" fill="#0270A9"/>
<path d="M399.901 467.4H389.401L387.801 470.8H397.001L399.901 467.4Z" fill="#EFEDEC"/>
<path d="M394.499 473.7H386.399L385.199 475.6H392.799L394.499 473.7Z" fill="#EFEDEC"/>
<path d="M251 382.7L142.1 532.9L278.4 413.8L251 382.7Z" fill="#057DBC"/>
<path d="M194.6 487L184.6 480.2L182.5 482.3L192.4 489L194.6 487Z" fill="#E9E9EA"/>
<path d="M187.7 493.1L179.9 487.4L181.3 485.9L189.3 491.7L187.7 493.1Z" fill="#E9E9EA"/>
</svg>
