<svg width="242" height="72" viewBox="0 0 242 72" fill="none" xmlns="http://www.w3.org/2000/svg">
<g clip-path="url(#clip0)">
<path d="M71.0723 20.5289C70.3857 20.5289 69.7449 20.2085 69.3329 19.6592C68.4175 18.5149 67.0443 15.8601 69.928 12.3356C69.928 12.3356 72.2852 8.90269 74.757 12.9765C74.757 12.9765 76.153 14.876 74.757 17.9657C74.7341 17.9657 73.3151 20.5518 71.0723 20.5289Z" fill="#005680"/>
<path d="M77.3902 21.0557L77.1155 27.9215C77.1155 27.9215 73.797 31.2858 72.1492 33.1167L68.167 25.3583C68.1899 25.3583 72.4467 23.2985 77.3902 21.0557Z" fill="#00537C"/>
<path d="M60.3164 36.8697C60.3164 36.8697 68.4639 37.4876 70.2719 36.3662C70.2719 36.3662 70.8899 34.4895 72.1486 33.1392L68.3953 24.946L66.427 18.0801L61.2776 20.0483L61.5065 30.4387C61.5523 30.4158 60.8428 35.8398 60.3164 36.8697Z" fill="#005680"/>
<path d="M77.1143 27.9218C77.1143 27.9218 81.0049 24.1226 91.6242 14.7393L77.4118 21.0559L77.1143 27.9218Z" fill="#017DBA"/>
<path d="M61.3005 20.0255L60.8428 0L66.4499 18.0573L61.3005 20.0255Z" fill="#0070A8"/>
<path d="M60.6146 27.3258L53.4054 25.1516C53.4054 25.1516 51.7347 24.3048 50.9795 25.8153L50.2929 27.4631C50.0182 28.1497 49.3317 28.5845 48.5993 28.5616C48.1416 28.5388 47.5465 28.4243 46.7684 28.1497L42.9464 26.5934C42.8091 26.5248 42.6489 26.479 42.5115 26.4332C41.4588 26.1128 36.9044 24.7168 30.9082 23.458C30.9082 23.458 31.9152 24.3735 30.9082 27.486C30.9082 27.486 32.1669 27.3716 33.9521 28.0124L40.0627 29.4771C40.0627 29.4771 42.0996 30.0035 44.2051 30.713L46.8599 31.514C46.8599 31.514 48.3704 32.4294 49.6063 29.7517L49.9038 29.1109C50.1327 28.6074 50.5675 28.2412 51.1168 28.1268C51.4601 28.0581 51.872 28.0581 52.4213 28.1726C52.4213 28.1726 55.4194 28.287 60.4544 30.3925L60.6146 27.3258Z" fill="#DF1E37"/>
<path d="M57.4555 43.9189L51.917 51.7003L55.6017 55.9114L64.4816 48.0843L57.4555 43.9189Z" fill="#00486C"/>
<path d="M70.2487 41.6759C70.2487 41.6759 70.798 43.9188 75.7414 47.4662L73.5444 53.2106C73.5444 53.2106 67.6168 49.5717 57.1807 44.2392C57.1807 44.2392 57.7757 43.484 58.8971 41.8361L63.7719 40.6689L70.2487 41.6759Z" fill="#005680"/>
<path d="M71.4623 36.3203C71.4623 36.3203 71.2106 40.005 54.7554 37.3731C54.7554 37.3731 52.8329 37.3502 40.9778 34.0546L39.4673 33.6655C39.4673 33.6655 38.5976 33.3909 37.9568 34.9243L37.0185 37.0069C37.0185 37.0069 36.8125 37.9452 34.3637 37.3731L32.6701 37.0069C32.6701 37.0069 27.9784 34.8785 18 33.4824C18 33.4824 18.4577 34.3979 18.1831 37.4417C18.1831 37.4417 28.7794 38.792 33.3338 40.5772C33.7915 40.7603 34.295 40.8289 34.7756 40.7374C35.3478 40.6229 36.0573 40.2796 36.5379 39.3184L37.3847 37.785C37.3847 37.785 37.6135 36.7094 39.8564 37.2129C40.0624 37.2587 40.2683 37.3044 40.4743 37.3273C41.55 37.4417 45.3491 38.0597 50.3612 40.2568C50.8189 40.4627 51.2766 40.6229 51.7573 40.7374C52.8787 41.012 55.1215 41.4697 58.9436 41.813C58.9436 41.813 68.9449 42.4767 70.2723 41.6299C70.2494 41.6757 71.7599 41.218 71.4623 36.3203Z" fill="#DF1E37"/>
<path d="M67.6172 68.1784L81.5778 52.1809C81.5778 52.1809 76.314 48.0156 75.5587 47.2832L67.6172 68.1784Z" fill="#0070A8"/>
<path d="M72.0335 63.1426H70.5917L70.3857 63.6003H71.6216L72.0335 63.1426Z" fill="#EEECEB"/>
<path d="M71.2798 63.9902H70.2041L70.0439 64.2649H71.0509L71.2798 63.9902Z" fill="#EEECEB"/>
<path d="M51.918 51.7002L37.2021 72.0003L55.6027 55.9113L51.918 51.7002Z" fill="#017DBA"/>
<path d="M44.2972 65.7983L42.9241 64.8828L42.6494 65.1575L43.9997 66.05L44.2972 65.7983Z" fill="#E8E8E9"/>
<path d="M43.3584 66.6218L42.3057 65.8437L42.4888 65.6377L43.5644 66.4158L43.3584 66.6218Z" fill="#E8E8E9"/>
<path d="M92.084 41.8359H94.6244C94.5786 43.4608 95.6314 44.5594 96.9359 44.5594C97.8514 44.5594 98.6066 43.8499 98.6066 42.9344C98.6066 40.1881 91.9238 40.5543 91.9238 35.8168C91.9238 32.8874 94.1209 31.6973 95.9976 31.6973C97.1648 31.6973 98.126 32.155 98.7439 33.0933H98.7897V31.8804H101.33V36.4576H98.7897C98.5837 35.0844 97.7598 34.2376 96.6155 34.2376C95.7458 34.2376 95.1279 34.7411 95.1279 35.4506C95.1279 37.8994 102.085 37.3502 102.085 42.6827C102.085 46.2758 99.3161 47.1684 97.7141 47.1684C96.3866 47.1684 95.3568 46.6878 94.6931 45.7037H94.6244V46.9624H92.0611V41.8359H92.084Z" fill="#00537C"/>
<path d="M111.514 46.9629H103.596V44.3997H105.495V34.4212H103.596V31.8809H112.178C115.336 31.8809 117.305 34.0093 117.305 36.687C117.305 39.296 115.634 41.4931 111.858 41.4931H109.409V44.4225H111.491V46.9629H111.514ZM110.507 38.9069C112.315 38.9069 113.139 38.1746 113.139 36.687C113.139 35.2909 112.201 34.4212 110.942 34.4212H109.432V38.9069H110.507V38.9069Z" fill="#00537C"/>
<path d="M135.637 39.4102C135.637 43.278 132.936 47.1687 127.238 47.1687C121.562 47.1687 118.861 43.3238 118.861 39.4102C118.861 35.3823 121.676 31.6289 127.238 31.6289C132.845 31.6289 135.637 35.4051 135.637 39.4102ZM123.072 39.4789C123.072 42.3855 124.766 44.4223 127.238 44.4223C129.297 44.4223 131.426 42.8661 131.426 39.3874C131.426 36.2748 129.595 34.3753 127.238 34.3753C125.247 34.3753 123.072 35.8171 123.072 39.4789Z" fill="#00537C"/>
<path d="M152.962 46.9629H148.362L144.975 40.3488H143.235V44.4225H145.135V46.9858H137.239V44.4225H139.299V34.4441H137.239V31.8809H146.646C149.575 31.8809 151.177 33.8262 151.177 36.1148C151.177 37.8542 150.33 39.0672 148.568 39.8682L151.017 44.4225H152.962V46.9629ZM144.815 37.9228C146.577 37.9228 147.08 36.9387 147.08 36.1377C147.08 35.5198 146.691 34.4212 145.227 34.4212H143.235V37.9228H144.815Z" fill="#00537C"/>
<path d="M166.762 37.9457H164.13V34.4441H161.864V44.4225H164.13V46.9858H155.662V44.4225H157.928V34.4441H155.662V37.9457H153.03V31.8809H166.739V37.9457H166.762Z" fill="#00537C"/>
<path d="M168.386 41.8359H170.95C170.904 43.4608 171.957 44.5594 173.261 44.5594C174.177 44.5594 174.932 43.8499 174.932 42.9344C174.932 40.1881 168.249 40.5543 168.249 35.8168C168.249 32.8874 170.446 31.6973 172.323 31.6973C173.49 31.6973 174.451 32.155 175.069 33.0933H175.115V31.8804H177.655V36.4576H175.115C174.909 35.0844 174.085 34.2376 172.941 34.2376C172.071 34.2376 171.453 34.7411 171.453 35.4506C171.453 37.8994 178.411 37.3502 178.411 42.6827C178.411 46.2758 175.641 47.1684 174.039 47.1684C172.712 47.1684 171.682 46.6878 171.018 45.7037H170.972V46.9624H168.409V41.8359H168.386Z" fill="#00537C"/>
<path d="M194.752 46.9629H187.405V44.3997H189.305L188.595 41.8135H184.682L183.858 44.3997H185.872V46.9629H179.166V44.3997H181.066L184.018 34.4212H182.004V31.8809H191.845V34.4441H189.831L192.989 44.4225H194.774V46.9629H194.752ZM186.764 35.0392H186.718L185.368 39.5935H188L186.764 35.0392Z" fill="#00537C"/>
<path d="M203.335 46.9629H195.416V44.3997H197.316V34.4212H195.416V31.8809H204.021C207.18 31.8809 209.148 34.0093 209.148 36.687C209.148 39.296 207.477 41.4931 203.701 41.4931H201.252V44.4225H203.335V46.9629ZM202.351 38.9069C204.159 38.9069 204.982 38.1746 204.982 36.687C204.982 35.2909 204.044 34.4212 202.785 34.4212H201.275V38.9069H202.351V38.9069Z" fill="#00537C"/>
<path d="M218.165 46.9629H210.246V44.3997H212.146V34.4212H210.246V31.8809H218.828C221.987 31.8809 223.955 34.0093 223.955 36.687C223.955 39.296 222.284 41.4931 218.508 41.4931H216.059V44.4225H218.142V46.9629H218.165ZM217.181 38.9069C218.989 38.9069 219.813 38.1746 219.813 36.687C219.813 35.2909 218.874 34.4212 217.615 34.4212H216.105V38.9069H217.181V38.9069Z" fill="#00537C"/>
</g>
<defs>
<clipPath id="clip0">
<rect width="242" height="72" fill="white"/>
</clipPath>
</defs>
</svg>
