<svg width="28" height="29" viewBox="0 0 28 29" fill="none" xmlns="http://www.w3.org/2000/svg">
<g clip-path="url(#clip0)">
<path d="M22.4417 9.25C20.0303 9.25 18.0667 7.28766 18.0667 4.875C18.0667 2.46234 20.0303 0.5 22.4417 0.5C24.8533 0.5 26.8167 2.46234 26.8167 4.875C26.8167 7.28766 24.8533 9.25 22.4417 9.25ZM22.4417 2.25C20.995 2.25 19.8167 3.42706 19.8167 4.875C19.8167 6.32294 20.995 7.5 22.4417 7.5C23.8883 7.5 25.0667 6.32294 25.0667 4.875C25.0667 3.42706 23.8883 2.25 22.4417 2.25Z" fill="white"/>
<path d="M22.4417 28.5C20.0303 28.5 18.0667 26.5377 18.0667 24.125C18.0667 21.7123 20.0303 19.75 22.4417 19.75C24.8533 19.75 26.8167 21.7123 26.8167 24.125C26.8167 26.5377 24.8533 28.5 22.4417 28.5ZM22.4417 21.5C20.995 21.5 19.8167 22.6771 19.8167 24.125C19.8167 25.5729 20.995 26.75 22.4417 26.75C23.8883 26.75 25.0667 25.5729 25.0667 24.125C25.0667 22.6771 23.8883 21.5 22.4417 21.5Z" fill="white"/>
<path d="M5.52344 18.875C3.11185 18.875 1.14844 16.9127 1.14844 14.5C1.14844 12.0873 3.11185 10.125 5.52344 10.125C7.93503 10.125 9.89844 12.0873 9.89844 14.5C9.89844 16.9127 7.93503 18.875 5.52344 18.875ZM5.52344 11.875C4.07678 11.875 2.89844 13.0521 2.89844 14.5C2.89844 15.9479 4.07678 17.125 5.52344 17.125C6.97009 17.125 8.14844 15.9479 8.14844 14.5C8.14844 13.0521 6.97009 11.875 5.52344 11.875Z" fill="white"/>
<path d="M8.57106 13.649C8.26644 13.649 7.97014 13.4903 7.81035 13.2081C7.5711 12.7881 7.717 12.2536 8.13698 12.0146L18.9625 5.84278C19.3812 5.60138 19.9168 5.74835 20.1547 6.16962C20.394 6.5896 20.2481 7.12387 19.8281 7.36313L9.00258 13.5347C8.86608 13.6116 8.71804 13.649 8.57106 13.649Z" fill="white"/>
<path d="M19.3942 23.2746C19.2472 23.2746 19.099 23.2372 18.9624 23.1592L8.13689 16.9874C7.71691 16.7484 7.57122 16.2139 7.81026 15.7939C8.04824 15.3729 8.58272 15.227 9.0027 15.4673L19.828 21.6389C20.248 21.8781 20.3939 22.4124 20.1549 22.8324C19.9938 23.1158 19.6975 23.2746 19.3942 23.2746Z" fill="white"/>
</g>
<defs>
<clipPath id="clip0">
<rect width="28" height="28" fill="white" transform="translate(0 0.5)"/>
</clipPath>
</defs>
</svg>
