<svg width="184" height="56" viewBox="0 0 184 56" fill="none" xmlns="http://www.w3.org/2000/svg">
<rect width="184" height="56" rx="8" fill="black" fill-opacity="0.9"/>
<path d="M40.4419 18.5509C40.0291 18.5509 39.6327 18.3528 39.3767 18.0225C38.8152 17.3206 37.9813 15.6939 39.7401 13.5471C39.7401 13.5471 41.1851 11.4415 42.6879 13.9352C42.6879 13.9352 43.5466 15.0912 42.6879 16.9821C42.6796 16.9821 41.8126 18.5592 40.4419 18.5509Z" fill="#015681"/>
<path d="M44.3076 18.873L44.1342 23.0759C44.1342 23.0759 42.103 25.1319 41.1038 26.2466L38.668 21.4988C38.6762 21.4988 41.2772 20.2437 44.3076 18.873Z" fill="#00537C"/>
<path d="M33.8789 28.5339C33.8789 28.5339 38.858 28.9055 39.9727 28.2201C39.9727 28.2201 40.3443 27.0724 41.1205 26.2466L38.8332 21.2428L37.6359 17.0399L34.4899 18.2372L34.6303 24.5869C34.6221 24.5869 34.1927 27.9063 33.8789 28.5339Z" fill="#015681"/>
<path d="M44.1406 23.0759C44.1406 23.0759 46.5104 20.7639 53.0006 15.0169L44.3058 18.873L44.1406 23.0759Z" fill="#057DBC"/>
<path d="M34.4722 18.2372L34.1914 6L37.6181 17.0399L34.4722 18.2372Z" fill="#0270A9"/>
<path d="M34.0438 22.7043L29.6428 21.3831C29.6428 21.3831 28.6271 20.8629 28.1647 21.7877L27.7436 22.7869C27.5702 23.1997 27.1573 23.4722 26.7115 23.4557C26.4307 23.4392 26.0674 23.3649 25.5885 23.1997L23.2517 22.2419C23.1609 22.2089 23.0783 22.1758 22.9792 22.1428C22.3351 21.9446 19.5525 21.0941 15.8945 20.318C15.8945 20.318 16.5138 20.8795 15.8945 22.7869C15.8945 22.7869 16.6625 22.7208 17.7607 23.1089L21.4929 24.0089C21.4929 24.0089 22.7397 24.331 24.0196 24.7603L25.6463 25.2558C25.6463 25.2558 26.5711 25.8173 27.3225 24.1823L27.5041 23.786C27.6445 23.4805 27.917 23.2493 28.239 23.1832C28.4455 23.1419 28.7014 23.1419 29.0317 23.2162C29.0317 23.2162 30.8648 23.2823 33.9365 24.5704L34.0438 22.7043Z" fill="#E01E38"/>
<path d="M32.1101 32.8441L28.7246 37.6003L30.9871 40.1683L36.4121 35.3874L32.1101 32.8441Z" fill="#00486C"/>
<path d="M39.9393 31.4817C39.9393 31.4817 40.2696 32.8524 43.3 35.024L41.9624 38.5416C41.9624 38.5416 38.3374 36.3204 31.9629 33.0588C31.9629 33.0588 32.3262 32.6047 33.0116 31.5973L35.9924 30.8872L39.9393 31.4817Z" fill="#015681"/>
<path d="M40.6902 28.1953C40.6902 28.1953 40.5416 30.4496 30.4761 28.8477C30.4761 28.8477 29.3036 28.8394 22.0537 26.8246L21.1289 26.5852C21.1289 26.5852 20.5922 26.4118 20.2041 27.3531L19.6261 28.6247C19.6261 28.6247 19.494 29.1945 17.9995 28.8559L16.9673 28.6247C16.9673 28.6247 14.0938 27.3283 8 26.4696C8 26.4696 8.28074 27.0311 8.10734 28.8889C8.10734 28.8889 14.581 29.7147 17.3719 30.8046C17.6527 30.912 17.9582 30.9615 18.2472 30.9037C18.6022 30.8376 19.0316 30.623 19.3206 30.0367L19.8326 29.0954C19.8326 29.0954 19.9729 28.4348 21.3436 28.7486C21.4675 28.7733 21.5913 28.8064 21.7152 28.8146C22.3675 28.8889 24.696 29.2605 27.7595 30.6064C28.032 30.7303 28.3127 30.8294 28.61 30.9037C29.287 31.0771 30.666 31.3578 33.0028 31.5643C33.0028 31.5643 39.1131 31.9689 39.9306 31.4569C39.9388 31.4817 40.8554 31.201 40.6902 28.1953Z" fill="#E01E38"/>
<path d="M38.3379 47.6741L46.8758 37.8975C46.8758 37.8975 43.6555 35.3543 43.2014 34.9084L38.3379 47.6741Z" fill="#0270A9"/>
<path d="M41.0206 44.5941H40.1536L40.0215 44.8749H40.7811L41.0206 44.5941Z" fill="#EFEDEC"/>
<path d="M40.5746 45.1143H39.9057L39.8066 45.2712H40.4342L40.5746 45.1143Z" fill="#EFEDEC"/>
<path d="M28.7265 37.6003L19.7344 50.0026L30.9889 40.1683L28.7265 37.6003Z" fill="#057DBC"/>
<path d="M24.0675 46.2125L23.2418 45.651L23.0684 45.8245L23.8858 46.3777L24.0675 46.2125Z" fill="#E9E9EA"/>
<path d="M23.4995 46.7162L22.8555 46.2456L22.9711 46.1217L23.6316 46.6006L23.4995 46.7162Z" fill="#E9E9EA"/>
<path d="M66.0101 34.1V44H67.1051V34.1H66.0101ZM72.5889 37.67C71.4789 37.67 70.5489 38.45 70.4289 38.975V37.85H69.3189V44H70.4289V40.58C70.4289 39.425 71.3739 38.555 72.3189 38.555C73.2489 38.555 73.9239 39.095 73.9239 40.37V44H75.0489V40.145C75.0489 38.39 73.7739 37.67 72.5889 37.67ZM84.6796 41V34.1H83.5846V40.895C83.5846 42.17 83.1196 43.115 81.8896 43.115C80.8396 43.115 80.3896 42.515 80.2396 42.245L79.7296 43.19C79.8496 43.43 80.5546 44.18 82.0096 44.18C83.8096 44.18 84.6796 42.98 84.6796 41ZM87.5561 40.985V37.85H86.4611V41.165C86.4611 42.92 87.4961 44.18 89.3411 44.18C91.2011 44.18 92.2361 42.92 92.2361 41.165V37.85H91.1411V40.985C91.1411 42.35 90.5561 43.205 89.3411 43.205C88.1261 43.205 87.5561 42.35 87.5561 40.985ZM96.3307 37.67C95.0707 37.67 93.9757 38.3 93.9757 39.335C93.9757 40.43 94.9357 40.895 95.9107 41.135C96.6757 41.33 97.3657 41.555 97.3657 42.26C97.3657 42.875 96.7357 43.295 95.8657 43.295C94.8607 43.295 94.2607 42.74 94.2007 42.695L93.7057 43.505C93.7657 43.55 94.5607 44.18 95.9107 44.18C97.2157 44.18 98.4907 43.64 98.4907 42.26C98.4907 41.075 97.5757 40.685 96.5407 40.43C95.6557 40.205 95.0857 39.905 95.0857 39.365C95.0857 38.795 95.6707 38.48 96.4207 38.48C97.2457 38.48 97.7857 38.93 97.8307 38.96L98.3107 38.24C98.2657 38.21 97.4407 37.67 96.3307 37.67ZM99.5201 37.85V38.81H100.75V42.41C100.75 43.64 101.44 44.18 102.355 44.18C103.12 44.18 103.63 43.865 103.72 43.775L103.255 42.92C103.225 42.965 103 43.175 102.595 43.175C102.16 43.175 101.86 42.86 101.86 42.08V38.81H103.48V37.85H101.86V35.315H100.75V37.85H99.5201ZM108.284 39.05C108.284 41.84 110.339 44.18 113.174 44.18C115.994 44.18 118.049 41.84 118.049 39.05C118.049 36.245 115.964 33.92 113.174 33.92C110.384 33.92 108.284 36.245 108.284 39.05ZM109.409 39.05C109.409 36.83 110.984 34.97 113.174 34.97C115.364 34.97 116.909 36.83 116.909 39.05C116.909 41.255 115.364 43.13 113.174 43.13C110.984 43.13 109.409 41.255 109.409 39.05ZM122.906 37.67C121.796 37.67 120.866 38.45 120.746 38.975V37.85H119.636V44H120.746V40.58C120.746 39.425 121.691 38.555 122.636 38.555C123.566 38.555 124.241 39.095 124.241 40.37V44H125.366V40.145C125.366 38.39 124.091 37.67 122.906 37.67ZM127.915 41.015H132.835C132.85 40.94 132.85 40.82 132.85 40.73C132.85 38.87 131.515 37.67 129.91 37.67C128.125 37.67 126.805 39.05 126.805 40.85C126.805 42.785 128.095 44.18 129.985 44.18C131.41 44.18 132.19 43.715 132.745 42.905L132.115 42.2C131.86 42.53 131.215 43.295 130.03 43.295C128.695 43.295 127.93 42.185 127.915 41.015ZM131.755 40.37H127.96C128.02 39.47 128.695 38.495 129.925 38.495C131.095 38.495 131.71 39.53 131.755 40.37ZM144.828 35.495V34.355C144.393 34.085 143.718 33.92 142.728 33.92C139.818 33.92 137.913 36.155 137.913 39.05C137.913 41.93 139.593 44.18 142.728 44.18C143.673 44.18 144.498 43.94 144.828 43.715V42.59C144.573 42.755 143.943 43.145 142.728 43.145C140.703 43.145 139.068 41.57 139.068 39.05C139.068 36.515 140.778 34.955 142.728 34.955C143.973 34.955 144.588 35.33 144.828 35.495ZM147.853 44V33.68H146.728V44H147.853ZM150.613 35.57C151.048 35.57 151.393 35.225 151.393 34.805C151.393 34.37 151.033 34.025 150.613 34.025C150.193 34.025 149.848 34.37 149.848 34.805C149.848 35.225 150.178 35.57 150.613 35.57ZM150.043 44H151.153V37.85H150.043V44ZM156.128 43.235C155.108 43.235 154.043 42.38 154.043 40.91C154.043 39.455 155.108 38.6 156.128 38.6C156.953 38.6 157.418 39.035 157.538 39.155L158.108 38.33C157.928 38.165 157.178 37.67 156.068 37.67C154.463 37.67 152.963 38.795 152.963 40.91C152.963 43.04 154.463 44.18 156.068 44.18C157.178 44.18 158.003 43.715 158.138 43.58L157.583 42.77C157.463 42.875 156.938 43.235 156.128 43.235ZM163.254 37.85L160.479 40.34V33.68H159.369V44H160.479V41.225L163.434 44H164.829L161.394 40.775L164.634 37.85H163.254Z" fill="white"/>
<path d="M56.0687 13.46V26H59.5077C63.5167 26 65.4167 23.378 65.4167 19.73C65.4167 16.082 63.5167 13.46 59.5077 13.46H56.0687ZM58.4247 15.569H59.3177C61.7877 15.569 62.9277 17.336 62.9277 19.73C62.9277 22.124 61.7687 23.891 59.3177 23.891H58.4247V15.569ZM71.1527 26.228C73.6417 26.228 75.3897 24.499 75.3897 22.124C75.3897 19.749 73.6417 17.982 71.1527 17.982C68.6447 17.982 66.8397 19.749 66.8397 22.124C66.8397 24.499 68.6447 26.228 71.1527 26.228ZM71.1527 24.233C69.9367 24.233 69.1577 23.34 69.1577 22.124C69.1577 20.889 69.9367 19.977 71.1527 19.977C72.3497 19.977 73.1097 20.889 73.1097 22.124C73.1097 23.34 72.3497 24.233 71.1527 24.233ZM82.7572 21.041L84.6572 26H86.9182L89.3122 18.21H86.7662L85.4552 23.074L83.6122 18.362H81.9212L80.0592 23.074L78.7482 18.21H76.2022L78.5962 26H80.8762L82.7572 21.041ZM95.5276 17.982C94.1976 17.982 93.0576 18.818 92.8866 19.445V18.21H90.4926V26H92.8866V21.763C92.8866 20.585 93.7986 19.711 94.7676 19.711C95.7366 19.711 96.4206 20.338 96.4206 21.611V26H98.8146V21.193C98.8146 18.913 97.1236 17.982 95.5276 17.982ZM103.207 26V12.928H100.794V26H103.207ZM109.199 26.228C111.688 26.228 113.436 24.499 113.436 22.124C113.436 19.749 111.688 17.982 109.199 17.982C106.691 17.982 104.886 19.749 104.886 22.124C104.886 24.499 106.691 26.228 109.199 26.228ZM109.199 24.233C107.983 24.233 107.204 23.34 107.204 22.124C107.204 20.889 107.983 19.977 109.199 19.977C110.396 19.977 111.156 20.889 111.156 22.124C111.156 23.34 110.396 24.233 109.199 24.233ZM121.316 26H123.672V18.21H121.297V19.464C121.088 18.932 120.1 17.982 118.542 17.982C116.3 17.982 114.723 19.749 114.723 22.105C114.723 24.48 116.3 26.228 118.542 26.228C120.138 26.228 121.164 25.069 121.316 24.632V26ZM117.06 22.105C117.06 20.794 118.067 19.882 119.207 19.882C120.404 19.882 121.278 20.813 121.278 22.105C121.278 23.416 120.404 24.309 119.207 24.309C118.067 24.309 117.06 23.435 117.06 22.105ZM134.383 26V12.928H131.989V19.464C131.761 18.913 130.887 17.982 129.31 17.982C127.068 17.982 125.415 19.749 125.415 22.105C125.415 24.48 127.068 26.228 129.31 26.228C130.716 26.228 131.704 25.316 132.008 24.632V26H134.383ZM127.771 22.105C127.771 20.794 128.759 19.882 129.899 19.882C131.115 19.882 131.989 20.813 131.989 22.105C131.989 23.416 131.115 24.309 129.899 24.309C128.759 24.309 127.771 23.435 127.771 22.105ZM143.63 17.07L148.57 26H151.173V13.46H148.817V22.352H148.798L143.858 13.46H141.255V26H143.611V17.07H143.63ZM157.396 26.228C159.885 26.228 161.633 24.499 161.633 22.124C161.633 19.749 159.885 17.982 157.396 17.982C154.888 17.982 153.083 19.749 153.083 22.124C153.083 24.499 154.888 26.228 157.396 26.228ZM157.396 24.233C156.18 24.233 155.401 23.34 155.401 22.124C155.401 20.889 156.18 19.977 157.396 19.977C158.593 19.977 159.353 20.889 159.353 22.124C159.353 23.34 158.593 24.233 157.396 24.233ZM169.001 21.041L170.901 26H173.162L175.556 18.21H173.01L171.699 23.074L169.856 18.362H168.165L166.303 23.074L164.992 18.21H162.446L164.84 26H167.12L169.001 21.041Z" fill="white"/>
</svg>
