<svg width="129" height="129" viewBox="0 0 129 129" fill="none" xmlns="http://www.w3.org/2000/svg">
<path d="M75.8516 23.1838L112.345 86.392C113.683 88.71 114.453 91.3973 114.453 94.2661C114.453 102.978 107.39 110.041 98.6774 110.041H62.1845L49.5645 62.6621L62.1845 15.2832C68.0279 15.2832 73.1255 18.4628 75.8516 23.1838Z" fill="#3B4145"/>
<path d="M48.5092 23.1838L12.0159 86.392C10.6777 88.71 9.9082 91.3973 9.9082 94.2661C9.9082 102.978 16.9709 110.041 25.6833 110.041H62.1762L62.1762 15.2832C56.3328 15.2832 51.2353 18.4628 48.5092 23.1838Z" fill="#525A61"/>
<path d="M106.895 89.5754L70.4024 26.3678C68.7576 23.5178 65.7372 21.7194 62.4707 21.627L93.6823 103.76H98.6924C103.911 103.76 108.157 99.5138 108.157 94.2952C108.157 92.6377 107.72 91.0056 106.895 89.5754Z" fill="#E17B00"/>
<path d="M100.733 89.5426C101.446 90.9728 101.823 92.605 101.823 94.2625C101.823 99.4809 98.1608 103.727 93.6574 103.727L25.6818 103.727C20.4634 103.727 16.2168 99.4809 16.2168 94.2625C16.2168 92.605 16.6543 90.9728 17.4788 89.5426L53.9717 26.3351C55.6628 23.4073 58.8052 21.5879 62.1747 21.5879C62.2651 21.5879 62.3556 21.5899 62.446 21.5942C65.2497 21.7037 67.839 23.4977 69.2503 26.3351L100.733 89.5426Z" fill="#F5B400"/>
<path d="M62.1895 82.7207V93.2374C65.0942 93.2374 67.4479 90.8837 67.4479 87.9789C67.4479 85.0744 65.0942 82.7207 62.1895 82.7207Z" fill="#3B4145"/>
<path d="M62.1667 82.7207C62.7471 82.7207 63.2183 85.0744 63.2183 87.9791C63.2183 90.8839 62.7471 93.2376 62.1667 93.2376C59.2619 93.2376 56.9082 90.8839 56.9082 87.9791C56.9082 85.0744 59.2619 82.7207 62.1667 82.7207Z" fill="#525A61"/>
<path d="M62.1895 37.4941L62.1895 76.406C65.0942 76.406 67.4479 74.0503 67.4479 71.1476V42.7526C67.4479 39.8478 65.0942 37.4941 62.1895 37.4941Z" fill="#3B4145"/>
<path d="M62.1667 37.502C62.7471 37.502 63.2183 39.8556 63.2183 42.7604V71.1554C63.2183 74.0579 62.7471 76.4139 62.1667 76.4139C59.2619 76.4139 56.9082 74.0581 56.9082 71.1554L56.9082 42.7604C56.9082 39.8556 59.2619 37.502 62.1667 37.502Z" fill="#525A61"/>
</svg>
