<svg width="129" height="129" viewBox="0 0 129 129" fill="none" xmlns="http://www.w3.org/2000/svg">
<path d="M76.2895 23.9542L110.242 82.7628C111.488 84.9194 112.204 87.4197 112.204 90.0888C112.204 98.1944 105.632 104.766 97.5265 104.766H63.5737L51.832 60.6846L63.5737 16.6035C69.0104 16.6035 73.7531 19.5618 76.2895 23.9542Z" fill="#3B4145"/>
<path d="M50.8399 23.9542L16.8867 82.7628C15.6417 84.9194 14.9258 87.4197 14.9258 90.0888C14.9258 98.1944 21.4969 104.766 29.6029 104.766H63.5557L63.5557 16.6035C58.119 16.6035 53.3763 19.5618 50.8399 23.9542Z" fill="#525A61"/>
<path d="M105.141 85.7052L71.1882 26.8972C69.6579 24.2456 66.8478 22.5724 63.8086 22.4863L92.8477 98.9027H97.5091C102.364 98.9027 106.315 94.9519 106.315 90.0965C106.315 88.5544 105.908 87.0359 105.141 85.7052Z" fill="#B7000E"/>
<path d="M99.4031 85.672C100.066 87.0027 100.417 88.5212 100.417 90.0633C100.417 94.9185 97.0098 98.8695 92.8199 98.8695L29.5757 98.8695C24.7205 98.8695 20.7695 94.9185 20.7695 90.0633C20.7695 88.5212 21.1766 87.0027 21.9437 85.672L55.8965 26.864C57.4699 24.14 60.3936 22.4473 63.5285 22.4473C63.6127 22.4473 63.6968 22.4492 63.781 22.4532C66.3895 22.555 68.7986 24.2242 70.1116 26.864L99.4031 85.672Z" fill="#DF1936"/>
<path d="M63.5508 79.3223V89.1069C66.2534 89.1069 68.4432 86.9171 68.4432 84.2145C68.4432 81.5121 66.2534 79.3223 63.5508 79.3223Z" fill="#3B4145"/>
<path d="M63.537 79.3223C64.077 79.3223 64.5155 81.5121 64.5155 84.2147C64.5155 86.9173 64.077 89.1071 63.537 89.1071C60.8344 89.1071 58.6445 86.9173 58.6445 84.2147C58.6445 81.5121 60.8344 79.3223 63.537 79.3223Z" fill="#525A61"/>
<path d="M63.5469 37.2598L63.5469 73.4632C66.2494 73.4632 68.4393 71.2714 68.4393 68.5708V42.1522C68.4393 39.4496 66.2494 37.2598 63.5469 37.2598Z" fill="#3B4145"/>
<path d="M63.5448 37.2598C64.0848 37.2598 64.5233 39.4496 64.5233 42.1522V68.5708C64.5233 71.2713 64.0848 73.4632 63.5448 73.4632C60.8422 73.4632 58.6523 71.2714 58.6523 68.5708L58.6523 42.1522C58.6523 39.4496 60.8422 37.2598 63.5448 37.2598Z" fill="#525A61"/>
</svg>
