<svg width="129" height="129" viewBox="0 0 129 129" fill="none" xmlns="http://www.w3.org/2000/svg">
<path d="M77.8982 23.3162L112.959 84.0441C114.245 86.2711 114.984 88.853 114.984 91.6092C114.984 99.9794 108.199 106.765 99.8284 106.765H64.7674L52.6426 61.2454L64.7674 15.7256C70.3816 15.7256 75.2791 18.7804 77.8982 23.3162Z" fill="#3B4145"/>
<path d="M51.6117 23.3162L16.5504 84.0441C15.2647 86.2711 14.5254 88.853 14.5254 91.6092C14.5254 99.9794 21.311 106.765 29.6815 106.765H64.7424L64.7424 15.7256C59.1283 15.7256 54.2308 18.7804 51.6117 23.3162Z" fill="#525A61"/>
<path d="M107.707 87.1015L72.6458 26.3742C71.0656 23.636 68.1638 21.9082 65.0254 21.8193L95.0122 100.73H99.8258C104.839 100.73 108.919 96.65 108.919 91.6361C108.919 90.0437 108.499 88.4756 107.707 87.1015Z" fill="#FFBE00"/>
<path d="M101.788 87.0763C102.473 88.4504 102.835 90.0185 102.835 91.611C102.835 96.6246 99.3165 100.705 94.9897 100.705L29.6815 100.705C24.6678 100.705 20.5879 96.6246 20.5879 91.611C20.5879 90.0185 21.0083 88.4504 21.8004 87.0763L56.8613 26.349C58.4861 23.5361 61.5052 21.7881 64.7424 21.7881C64.8293 21.7881 64.9162 21.79 65.0031 21.7942C67.6968 21.8993 70.1845 23.623 71.5403 26.349L101.788 87.0763Z" fill="#FFD700"/>
<path d="M64.7441 80.5068V90.6109C67.5349 90.6109 69.7963 88.3495 69.7963 85.5587C69.7963 82.7682 67.5349 80.5068 64.7441 80.5068Z" fill="#3B4145"/>
<path d="M64.7338 80.5068C65.2914 80.5068 65.7442 82.7682 65.7442 85.5589C65.7442 88.3497 65.2914 90.6111 64.7338 90.6111C61.943 90.6111 59.6816 88.3497 59.6816 85.5589C59.6816 82.7682 61.943 80.5068 64.7338 80.5068Z" fill="#525A61"/>
<path d="M64.7441 37.0693V74.4544C67.5349 74.4544 69.7963 72.1911 69.7963 69.4023V42.1214C69.7963 39.3307 67.5349 37.0693 64.7441 37.0693Z" fill="#3B4145"/>
<path d="M64.7338 37.0693C65.2914 37.0693 65.7442 39.3307 65.7442 42.1214V69.4023C65.7442 72.1909 65.2914 74.4544 64.7338 74.4544C61.943 74.4544 59.6816 72.1911 59.6816 69.4023L59.6816 42.1214C59.6816 39.3307 61.943 37.0693 64.7338 37.0693Z" fill="#525A61"/>
</svg>
