<svg width="130" height="129" viewBox="0 0 130 129" fill="none" xmlns="http://www.w3.org/2000/svg">
<path d="M58.4898 3.58865C61.7177 -0.271738 67.893 -0.271739 71.1208 3.58865L78.1574 12.0042C80.1728 14.4145 83.5133 15.4446 86.6366 14.6188L97.5416 11.7357C102.544 10.4131 107.54 13.8579 107.76 18.7815L108.241 29.5151C108.378 32.5892 110.443 35.2861 113.481 36.3602L124.089 40.1107C128.955 41.8312 130.864 47.4049 127.992 51.5112L121.733 60.4628C119.941 63.0266 119.941 66.3601 121.733 68.9239L127.992 77.8755C130.864 81.9818 128.955 87.5555 124.089 89.276L113.481 93.0265C110.443 94.1007 108.378 96.7975 108.241 99.8716L107.76 110.605C107.54 115.529 102.544 118.974 97.5416 117.651L86.6366 114.768C83.5133 113.942 80.1728 114.972 78.1574 117.382L71.1208 125.798C67.893 129.658 61.7177 129.658 58.4898 125.798L51.4532 117.382C49.4379 114.972 46.0973 113.942 42.9741 114.768L32.0691 117.651C27.0668 118.974 22.0708 115.529 21.8504 110.605L21.3699 99.8716C21.2323 96.7975 19.1677 94.1007 16.1295 93.0265L5.52148 89.276C0.655377 87.5555 -1.2529 81.9818 1.61829 77.8755L7.87745 68.9239C9.67011 66.3601 9.67011 63.0266 7.87745 60.4628L1.6183 51.5112C-1.2529 47.4049 0.655377 41.8312 5.52148 40.1107L16.1295 36.3602C19.1677 35.2861 21.2323 32.5892 21.3699 29.5151L21.8504 18.7815C22.0708 13.8579 27.0668 10.4131 32.0691 11.7357L42.9741 14.6188C46.0973 15.4446 49.4379 14.4145 51.4532 12.0042L58.4898 3.58865Z" fill="#3C91BC"/>
<path fill-rule="evenodd" clip-rule="evenodd" d="M99.4258 44.1747C101.641 46.5461 101.412 50.1729 98.9129 52.2755L60.3431 84.7297C56.2986 88.133 50.1452 87.9019 46.3966 84.2061L30.3514 68.387C28.0355 66.1036 28.1085 62.4709 30.5145 60.273C32.9204 58.0751 36.7483 58.1444 39.0642 60.4277L53.7677 74.9241L90.8899 43.6879C93.3886 41.5854 97.2103 41.8033 99.4258 44.1747Z" fill="white"/>
</svg>
