<svg width="1440" height="416" viewBox="0 0 1440 416" fill="none" xmlns="http://www.w3.org/2000/svg">
<path d="M0 139L1440 139V416L0 416L0 139Z" fill="#C74F3F"/>
<path fill-rule="evenodd" clip-rule="evenodd" d="M1440 312.702L0.0429687 312.702L0.0429688 296.637L1440 296.637V312.702Z" fill="#F5F5F5"/>
<path fill-rule="evenodd" clip-rule="evenodd" d="M1440 231.921L0.0468762 231.921L0.046875 222.004L1440 222.004L1440 231.921Z" fill="#F5F5F5"/>
<path fill-rule="evenodd" clip-rule="evenodd" d="M1440 183.548L0.0429695 183.548L0.0429688 177.527L1440 177.527L1440 183.548Z" fill="#F5F5F5"/>
<path fill-rule="evenodd" clip-rule="evenodd" d="M1440 153.715L0 153.71L1.74583e-05 150.168L1440 150.173V153.715Z" fill="#F5F5F5"/>
<path d="M0 132L1440 132V139L0 139L0 132Z" fill="#EBEBEB"/>
<ellipse opacity="0.5" cx="706.869" cy="179.843" rx="219.369" ry="29.9759" fill="#9F2717"/>
<path d="M550.398 20.1162L557.103 21.175C554.192 20.7338 551.192 20.4691 548.148 20.4691C528.339 20.425 510.737 30.3954 500.237 45.6597L493.531 44.6009C504.075 29.3366 521.634 19.3662 541.442 19.4103C544.53 19.4103 547.486 19.675 550.398 20.1162Z" fill="#206285"/>
<path d="M493.529 44.6016L500.235 45.6604C498.426 48.2632 496.838 50.9985 495.514 53.8661L488.809 52.8073C490.176 49.9397 491.764 47.2044 493.529 44.6016Z" fill="#21668A"/>
<path d="M488.813 52.8047L495.519 53.8635C494.416 56.2458 493.445 58.6722 492.651 61.1869L485.945 60.1281C486.739 57.6134 487.71 55.187 488.813 52.8047Z" fill="#22698F"/>
<path d="M485.944 60.1289L492.65 61.1877C491.9 63.4818 491.327 65.8641 490.885 68.2905L484.18 67.2317C484.621 64.8494 485.194 62.4671 485.944 60.1289Z" fill="#236D94"/>
<path d="M484.182 67.2344L490.888 68.2932C490.447 70.6755 490.182 73.146 490.049 75.6165L483.344 74.5577C483.476 72.0872 483.741 69.6608 484.182 67.2344Z" fill="#257199"/>
<path d="M483.338 74.5977L490.044 75.6565C490 76.627 489.956 77.5976 489.956 78.5682C489.956 80.2887 490 81.9651 490.176 83.6416L483.471 82.5828C483.338 80.9063 483.25 79.2299 483.25 77.5094C483.25 76.5388 483.25 75.5682 483.338 74.5977Z" fill="#26759E"/>
<path d="M483.426 82.582L490.132 83.6408C490.396 86.8172 490.926 89.9495 491.676 92.9936L484.97 91.9348C484.22 88.8907 483.69 85.7584 483.426 82.582Z" fill="#2778A3"/>
<path d="M484.973 91.8945L491.678 92.9533C495.119 106.762 503.502 118.585 514.84 126.526L508.134 125.467C496.84 117.57 488.458 105.703 484.973 91.8945Z" fill="#287CA8"/>
<path d="M508.129 125.465L514.835 126.524C517.438 128.332 520.173 129.921 523.04 131.332L516.335 130.274C513.467 128.862 510.732 127.274 508.129 125.465Z" fill="#2778A3"/>
<path d="M516.336 130.273L523.042 131.332C525.38 132.479 527.85 133.45 530.365 134.244L523.659 133.185C521.145 132.347 518.718 131.376 516.336 130.273Z" fill="#26759E"/>
<path d="M523.66 133.145L530.366 134.203C532.66 134.953 535.042 135.527 537.425 135.968L530.719 134.909C528.337 134.468 525.954 133.895 523.66 133.145Z" fill="#257199"/>
<path d="M530.723 134.91L537.428 135.969C537.87 136.057 538.355 136.145 538.796 136.19L532.09 135.131C531.649 135.087 531.208 134.998 530.723 134.91Z" fill="#236D94"/>
<path d="M553.492 0.972656L560.198 2.03145C560.816 2.11969 561.433 2.25204 562.051 2.34028L555.345 1.28147C554.683 1.14912 554.11 1.06089 553.492 0.972656Z" fill="#236D94"/>
<path d="M555.301 1.27734L562.007 2.33615C565.227 2.90966 568.359 3.70376 571.447 4.71845L564.742 3.65965C561.698 2.64496 558.521 1.85086 555.301 1.27734Z" fill="#257199"/>
<path d="M564.738 3.62109L571.444 4.67989C574.797 5.73869 578.062 7.06219 581.194 8.56216L574.488 7.50336C571.356 6.0034 568.091 4.72401 564.738 3.62109Z" fill="#26759E"/>
<path d="M574.488 7.5L581.194 8.5588C585.032 10.4117 588.694 12.5293 592.135 14.9557L585.429 13.8969C581.988 11.4705 578.326 9.30878 574.488 7.5Z" fill="#2778A3"/>
<path d="M585.434 13.8984L592.139 14.9572C607.227 25.5011 618.389 41.2949 623.021 59.6915L616.315 58.6327C611.683 40.2361 600.521 24.4423 585.434 13.8984Z" fill="#287CA8"/>
<path d="M616.312 58.6328L623.018 59.6916C624.033 63.7062 624.739 67.8973 625.092 72.1325L618.386 71.0737C618.033 66.8385 617.327 62.6474 616.312 58.6328Z" fill="#2778A3"/>
<path d="M618.387 71.0742L625.092 72.133C625.269 74.3388 625.357 76.5888 625.357 78.8829C625.357 80.2064 625.313 81.4858 625.269 82.7651L618.563 81.7063C618.651 80.427 618.651 79.1035 618.651 77.8241C618.651 75.5741 618.563 73.2801 618.387 71.0742Z" fill="#26759E"/>
<path d="M618.518 81.7031L625.224 82.7619C625.047 86.0707 624.65 89.3353 624.077 92.5558L617.371 91.497C617.945 88.2765 618.342 85.0119 618.518 81.7031Z" fill="#257199"/>
<path d="M617.369 91.5039L624.075 92.5627C623.502 95.7832 622.708 98.9596 621.737 102.048L615.031 100.989C616.002 97.9008 616.796 94.7244 617.369 91.5039Z" fill="#236D94"/>
<path d="M615.033 100.98L621.739 102.039C620.68 105.392 619.401 108.657 617.901 111.833L611.195 110.774C612.695 107.598 613.975 104.333 615.033 100.98Z" fill="#22698F"/>
<path d="M611.191 110.734L617.897 111.793C616.088 115.631 613.971 119.293 611.589 122.734L604.883 121.675C607.265 118.234 609.383 114.573 611.191 110.734Z" fill="#21668A"/>
<path d="M604.887 121.723L611.593 122.781C597.564 143.119 574.138 156.442 547.712 156.354C543.653 156.354 539.683 156.001 535.757 155.384L529.051 154.325C532.933 154.942 536.948 155.251 541.006 155.295C567.432 155.34 590.858 142.016 604.887 121.723Z" fill="#206285"/>
<path d="M541.529 0.000167798C584.189 0.0884011 618.777 35.0288 618.644 77.822C618.512 120.615 583.66 155.379 540.999 155.291C498.338 155.158 463.751 120.262 463.883 77.469C464.06 34.6318 498.868 -0.0880655 541.529 0.000167798ZM541.043 135.88C573.028 135.968 599.145 109.895 599.277 77.7779C599.41 45.6609 573.469 19.4997 541.484 19.4115C509.5 19.3233 483.383 45.3962 483.25 77.5132C483.118 109.63 509.059 135.791 541.043 135.88Z" fill="#0081C8"/>
<path d="M720.638 155.814C677.844 155.814 642.992 120.962 642.992 78.1688C642.992 35.3756 677.844 0.523438 720.638 0.523438C763.431 0.523438 798.283 35.3756 798.283 78.1688C798.283 120.962 763.431 155.814 720.638 155.814ZM720.638 19.9348C688.521 19.9348 662.404 46.0518 662.404 78.1688C662.404 110.286 688.521 136.403 720.638 136.403C752.754 136.403 778.872 110.286 778.872 78.1688C778.872 46.0518 752.754 19.9348 720.638 19.9348Z" fill="black"/>
<path d="M899.62 136.928L892.164 135.825C892.958 135.825 893.752 135.825 894.546 135.781L902.002 136.884C901.208 136.928 900.414 136.928 899.62 136.928Z" fill="#940226"/>
<path d="M902.003 136.933L894.547 135.83C898.738 135.698 902.797 135.124 906.723 134.109L914.179 135.212C910.252 136.183 906.194 136.801 902.003 136.933Z" fill="#8F0224"/>
<path d="M914.178 135.21L906.723 134.107C911.046 133.004 915.193 131.416 919.031 129.387L926.487 130.49C922.649 132.519 918.502 134.107 914.178 135.21Z" fill="#8A0223"/>
<path d="M926.487 130.492L919.032 129.389C937.384 119.771 950.09 100.492 950.399 78.1692C950.796 48.7875 929.531 24.2586 901.605 20.0234L909.061 21.1264C936.943 25.3174 958.207 49.8904 957.854 79.2721C957.545 101.551 944.884 120.874 926.487 130.492Z" fill="#850222"/>
<path d="M891.674 136.298L884.219 135.195C886.822 135.592 889.469 135.813 892.16 135.813L899.615 136.916C896.924 136.916 894.277 136.695 891.674 136.298Z" fill="#940226"/>
<path d="M901.389 1.10292L893.934 0C897.507 0.0441167 901.08 0.308814 904.522 0.838214L911.977 1.94113C908.536 1.41173 905.007 1.14703 901.389 1.10292Z" fill="#940226"/>
<path d="M888.76 155.51L881.305 154.407C844.114 148.804 815.747 116.07 816.277 76.8942C816.674 47.1595 833.615 21.4395 858.055 8.60156L865.511 9.70447C841.026 22.4983 824.085 48.2183 823.733 77.9971C823.247 117.173 851.57 149.907 888.76 155.51Z" fill="#850222"/>
<path d="M865.557 9.75144L858.102 8.64852C863.263 5.95741 868.778 3.79569 874.557 2.33984L882.013 3.44276C876.234 4.89861 870.719 7.01621 865.557 9.75144Z" fill="#8A0223"/>
<path d="M881.964 3.44386L874.508 2.34095C879.714 1.01745 885.184 0.223342 890.743 0.046875L898.198 1.14979C892.64 1.32626 887.213 2.12036 881.964 3.44386Z" fill="#8F0224"/>
<path d="M898.202 1.14703L890.746 0.0441126C891.805 -4.03966e-06 892.864 0 893.922 0L901.378 1.10292C900.319 1.10292 899.261 1.10291 898.202 1.14703Z" fill="#940226"/>
<path d="M901.379 1.10105C943.643 1.4981 977.569 36.6591 976.995 79.4522C976.422 122.245 941.613 156.745 899.35 156.348C857.086 155.951 823.16 120.834 823.734 77.9964C824.307 35.2032 859.115 0.703999 901.379 1.10105ZM899.614 136.936C931.29 137.245 957.407 111.349 957.848 79.2758C958.245 47.1588 932.834 20.8212 901.114 20.5124C869.439 20.2036 843.322 46.1 842.88 78.1729C842.483 110.29 867.939 136.672 899.614 136.936Z" fill="#EE334E"/>
<path d="M655.53 84.215L659.457 86.112C652.001 82.5385 643.619 80.5533 634.751 80.5533C617.105 80.5974 601.267 88.6266 590.59 101.2L586.664 99.3028C597.34 86.6855 613.222 78.7004 630.825 78.6562C639.648 78.6563 648.03 80.6415 655.53 84.215Z" fill="#857600"/>
<path d="M586.618 99.3047L590.544 101.202C588.559 103.584 586.706 106.099 585.118 108.746L581.191 106.849C582.824 104.202 584.633 101.687 586.618 99.3047Z" fill="#8A7A00"/>
<path d="M581.191 106.848L585.117 108.745C583.794 110.951 582.602 113.2 581.544 115.583L577.617 113.686C578.676 111.348 579.867 109.053 581.191 106.848Z" fill="#8F7F00"/>
<path d="M577.662 113.68L581.588 115.577C580.618 117.738 579.824 119.944 579.118 122.238L575.191 120.341C575.853 118.047 576.691 115.841 577.662 113.68Z" fill="#948300"/>
<path d="M575.191 120.348L579.117 122.245C578.456 124.495 577.882 126.745 577.485 129.083L573.559 127.186C573.956 124.848 574.529 122.598 575.191 120.348Z" fill="#998800"/>
<path d="M573.56 127.188L577.486 129.085C577.045 131.511 576.78 134.026 576.692 136.584L572.766 134.687C572.854 132.129 573.163 129.658 573.56 127.188Z" fill="#9E8C00"/>
<path d="M572.764 134.684L576.69 136.581C576.646 137.331 576.646 138.036 576.646 138.786C576.646 140.992 576.734 143.198 576.955 145.36L573.028 143.463C572.808 141.301 572.675 139.139 572.719 136.889C572.719 136.139 572.719 135.389 572.764 134.684Z" fill="#A39100"/>
<path d="M573.027 143.418L576.954 145.315C577.395 149.638 578.365 153.829 579.689 157.8L575.763 155.903C574.395 151.932 573.469 147.786 573.027 143.418Z" fill="#A89500"/>
<path d="M575.762 155.949L579.688 157.846C581.938 164.42 585.291 170.464 589.57 175.713L585.644 173.816C581.365 168.522 578.012 162.523 575.762 155.949Z" fill="#AD9A00"/>
<path d="M585.645 173.812L589.571 175.71C592.306 179.062 595.438 182.106 598.835 184.798L594.909 182.901C591.512 180.209 588.38 177.165 585.645 173.812Z" fill="#A89500"/>
<path d="M594.953 182.863L598.88 184.76C601.129 186.525 603.556 188.113 606.071 189.525L602.144 187.628C599.585 186.26 597.203 184.672 594.953 182.863Z" fill="#A39100"/>
<path d="M602.148 187.672L606.075 189.569C607.134 190.187 608.237 190.716 609.339 191.245L605.413 189.348C604.266 188.819 603.207 188.245 602.148 187.672Z" fill="#9E8C00"/>
<path d="M663.867 66.7031L667.794 68.6001C669.249 69.306 670.705 70.056 672.161 70.8501L668.235 68.9531C666.779 68.159 665.323 67.409 663.867 66.7031Z" fill="#9E8C00"/>
<path d="M668.234 68.9531L672.161 70.8501C675.514 72.7472 678.734 74.8648 681.734 77.2471L677.808 75.35C674.764 72.9677 671.587 70.8501 668.234 68.9531Z" fill="#A39100"/>
<path d="M677.805 75.3516L681.731 77.2486C686.275 80.822 690.466 84.8808 694.084 89.3807L690.157 87.4836C686.496 82.9837 682.349 78.8809 677.805 75.3516Z" fill="#A89500"/>
<path d="M690.16 87.4375L694.087 89.3345C699.778 96.3491 704.277 104.378 707.277 113.158L703.351 111.26C700.395 102.481 695.895 94.452 690.16 87.4375Z" fill="#AD9A00"/>
<path d="M703.352 111.262L707.278 113.159C709.087 118.497 710.322 124.056 710.94 129.835L707.013 127.938C706.396 122.159 705.16 116.556 703.352 111.262Z" fill="#A89500"/>
<path d="M707.016 127.938L710.942 129.835C711.251 132.702 711.383 135.614 711.383 138.57C711.383 139.54 711.339 140.555 711.295 141.525L707.369 139.628C707.413 138.658 707.457 137.687 707.457 136.673C707.457 133.717 707.324 130.805 707.016 127.938Z" fill="#A39100"/>
<path d="M707.363 139.633L711.29 141.53C711.158 144.927 710.76 148.236 710.231 151.5L706.305 149.603C706.878 146.339 707.231 142.986 707.363 139.633Z" fill="#9E8C00"/>
<path d="M706.306 149.598L710.233 151.495C709.703 154.583 708.953 157.671 708.071 160.627L704.145 158.73C705.027 155.73 705.733 152.686 706.306 149.598Z" fill="#998800"/>
<path d="M704.147 158.73L708.074 160.628C707.147 163.672 706.044 166.627 704.809 169.495L700.883 167.598C702.118 164.73 703.221 161.775 704.147 158.73Z" fill="#948300"/>
<path d="M700.834 167.594L704.76 169.491C703.393 172.623 701.804 175.667 700.04 178.579L696.113 176.682C697.878 173.77 699.466 170.726 700.834 167.594Z" fill="#8F7F00"/>
<path d="M696.118 176.688L700.044 178.585C697.883 182.114 695.456 185.511 692.809 188.643L688.883 186.746C691.53 183.614 693.956 180.261 696.118 176.688Z" fill="#8A7A00"/>
<path d="M688.881 186.746L692.807 188.643C678.558 205.452 657.426 216.128 633.912 216.172C622.132 216.172 610.971 213.525 601.001 208.76L597.074 206.863C607.045 211.628 618.206 214.275 629.985 214.275C653.455 214.231 674.631 203.555 688.881 186.746Z" fill="#857600"/>
<path d="M630.951 59.2892C673.391 59.201 707.714 93.9208 707.449 136.67C707.184 179.419 672.421 214.227 629.98 214.315C587.54 214.403 553.217 179.684 553.482 136.935C553.703 94.1855 588.467 59.3775 630.951 59.2892ZM630.069 194.904C661.921 194.86 687.994 168.743 688.17 136.67C688.391 104.641 662.627 78.5682 630.774 78.6564C598.922 78.7006 572.849 104.818 572.673 136.89C572.496 168.919 598.216 194.948 630.069 194.904Z" fill="#FCB131"/>
<path d="M810.539 196.476L804.539 195.24C808.554 195.24 812.436 194.799 816.23 193.961L822.23 195.196C818.436 196.034 814.509 196.476 810.539 196.476Z" fill="#006000"/>
<path d="M822.226 195.197L816.227 193.962C820.726 192.991 825.006 191.447 829.065 189.418L835.064 190.653C831.006 192.683 826.682 194.227 822.226 195.197Z" fill="#005C00"/>
<path d="M835.023 190.653L829.023 189.418C833.303 187.3 837.273 184.609 840.891 181.477L846.891 182.712C843.273 185.844 839.303 188.535 835.023 190.653Z" fill="#005900"/>
<path d="M846.893 182.709L840.893 181.474C853.202 170.798 861.187 154.871 861.451 137.092C861.893 108.99 842.922 85.476 817.379 80.0938L823.379 81.329C848.878 86.6671 867.848 110.181 867.451 138.328C867.187 156.107 859.202 172.033 846.893 182.709Z" fill="#005600"/>
<path d="M799.418 195.333L793.418 194.098C794.786 194.362 796.153 194.627 797.565 194.804L803.565 196.039C802.153 195.862 800.785 195.642 799.418 195.333Z" fill="#006300"/>
<path d="M803.562 196.04L797.562 194.805C799.857 195.114 802.151 195.246 804.533 195.246L810.533 196.481C808.15 196.481 805.812 196.349 803.562 196.04Z" fill="#006000"/>
<path d="M812.617 60.8056L806.617 59.5703C809.749 59.5703 812.882 59.7909 815.926 60.1438L821.926 61.3791C818.837 61.0262 815.749 60.8056 812.617 60.8056Z" fill="#006000"/>
<path d="M821.887 61.4267L815.887 60.1914C817.74 60.412 819.593 60.7649 821.401 61.1179L827.401 62.3531C825.592 61.9561 823.739 61.6473 821.887 61.4267Z" fill="#006300"/>
<path d="M795.441 214.331L789.441 213.095C755.427 205.948 730.104 174.626 730.678 137.126C731.03 113.436 741.663 92.1716 758.074 77.9219L764.074 79.1571C747.662 93.4068 737.03 114.627 736.677 138.362C736.104 175.817 761.427 207.184 795.441 214.331Z" fill="#005600"/>
<path d="M764.074 79.1592L758.074 77.9239C762.883 73.7329 768.221 70.1594 773.912 67.3359L779.912 68.5712C774.221 71.4388 768.883 75.0122 764.074 79.1592Z" fill="#005900"/>
<path d="M779.914 68.5694L773.914 67.3342C779.296 64.6431 785.031 62.5696 791.031 61.2461L797.031 62.4814C791.031 63.8049 785.296 65.8783 779.914 68.5694Z" fill="#005C00"/>
<path d="M797.027 62.482L791.027 61.2468C796.057 60.1438 801.262 59.5703 806.601 59.5703L812.6 60.8056C807.262 60.8056 802.057 61.3791 797.027 62.482Z" fill="#006000"/>
<path d="M812.618 60.8164C853.823 60.8164 886.822 95.5803 886.161 138.329C885.499 181.078 851.441 215.842 810.236 215.886C769.031 215.886 736.032 181.123 736.693 138.374C737.355 95.6245 771.413 60.8164 812.618 60.8164ZM810.545 196.475C841.426 196.475 866.97 170.358 867.455 138.329C867.94 106.257 843.191 80.1836 812.309 80.1836C781.428 80.1836 755.884 106.301 755.399 138.329C754.869 170.402 779.619 196.475 810.545 196.475Z" fill="#00A651"/>
<rect x="627.387" y="214.363" width="5.45016" height="12.717" fill="#F5F5F5"/>
<rect x="809.059" y="214.363" width="5.45016" height="12.717" fill="#F5F5F5"/>
</svg>
