<?xml version="1.0" encoding="utf-8"?>
<!-- Generator: Adobe Illustrator 22.1.0, SVG Export Plug-In . SVG Version: 6.00 Build 0)  -->
<svg version="1.1" id="Layer_1" xmlns="http://www.w3.org/2000/svg" xmlns:xlink="http://www.w3.org/1999/xlink" x="0px" y="0px"
	 viewBox="0 0 128 128" style="enable-background:new 0 0 128 128;" xml:space="preserve">
<style type="text/css">
	.st0{fill:#1877F2;}
	.st1{fill:#FFFFFF;}
</style>
<g>
	<path class="st0" d="M126,64c0-34.2-27.8-62-62-62S2,29.8,2,64c0,30.9,22.7,56.6,52.3,61.2V81.9H38.6V64h15.7V50.3
		c0-15.5,9.3-24.1,23.4-24.1c6.8,0,13.9,1.2,13.9,1.2v15.3h-7.8c-7.7,0-10.1,4.8-10.1,9.7V64h17.2l-2.7,17.9H73.7v43.3
		C103.3,120.6,126,94.9,126,64z"/>
	<path class="st1" d="M88.1,81.9L90.9,64H73.7V52.4c0-4.9,2.4-9.7,10.1-9.7h7.8V27.4c0,0-7.1-1.2-13.9-1.2
		c-14.2,0-23.4,8.6-23.4,24.1V64H38.6v17.9h15.7v43.3c3.2,0.5,6.4,0.8,9.7,0.8c3.3,0,6.5-0.3,9.7-0.8V81.9H88.1z"/>
</g>
</svg>
