<svg width="32" height="32" viewBox="0 0 32 32" fill="none" xmlns="http://www.w3.org/2000/svg">
<path d="M23.9556 0.0126953H8.01903C3.60349 0.0126953 0 3.61618 0 8.03173V23.9937C0 28.3838 3.60349 31.9873 8.01903 31.9873H23.981C28.3965 31.9873 32 28.3838 32 23.9683V8.03173C31.9746 3.61618 28.3711 0.0126953 23.9556 0.0126953ZM10.6582 25.8969H6.0904V12.701H10.6582V25.8969ZM8.34893 10.6709C7.05472 10.6709 6.01427 9.63046 6.01427 8.33625C6.01427 7.04204 7.05472 6.00159 8.34893 6.00159C9.64314 6.00159 10.6836 7.04204 10.6836 8.33625C10.6582 9.63046 9.61776 10.6709 8.34893 10.6709ZM25.9096 25.8969H25.8842H22.0777V19.502C22.0777 17.954 21.8747 15.9746 19.7684 15.9746C17.6114 15.9746 17.2561 17.6495 17.2561 19.4005V25.8969H13.4496V12.701H17.0024V14.4774H17.1039C17.6622 13.4623 18.9564 12.6757 20.9865 12.6757C25.1737 12.6757 25.9096 15.0864 25.9096 18.6646V25.8969Z" fill="white"/>
</svg>
