<?xml version="1.0" encoding="utf-8"?>
<!-- Generator: Adobe Illustrator 22.1.0, SVG Export Plug-In . SVG Version: 6.00 Build 0)  -->
<svg version="1.1" id="Layer_1" xmlns="http://www.w3.org/2000/svg" xmlns:xlink="http://www.w3.org/1999/xlink" x="0px" y="0px"
	 viewBox="0 0 128 128" style="enable-background:new 0 0 128 128;" xml:space="preserve">
<style type="text/css">
	.st0{clip-path:url(#SVGID_2_);fill:#1D9BF0;}
	.st1{clip-path:url(#SVGID_4_);fill:#FFFFFF;}
</style>
<g>
	<g>
		<defs>
			<rect id="SVGID_1_" x="2" y="2" width="124" height="124"/>
		</defs>
		<clipPath id="SVGID_2_">
			<use xlink:href="#SVGID_1_"  style="overflow:visible;"/>
		</clipPath>
		<path class="st0" d="M126,64c0,34.2-27.8,62-62,62S2,98.2,2,64S29.8,2,64,2S126,29.8,126,64"/>
	</g>
	<g>
		<defs>
			<rect id="SVGID_3_" x="2" y="2" width="124" height="124"/>
		</defs>
		<clipPath id="SVGID_4_">
			<use xlink:href="#SVGID_3_"  style="overflow:visible;"/>
		</clipPath>
		<path class="st1" d="M52.7,96.7c27.5,0,42.5-22.8,42.5-42.5c0-0.6,0-1.3,0-1.9c2.9-2.1,5.5-4.7,7.5-7.7c-2.7,1.2-5.6,2-8.6,2.4
			c3.1-1.9,5.5-4.8,6.6-8.3c-2.9,1.7-6.1,3-9.5,3.6c-2.7-2.9-6.6-4.7-10.9-4.7c-8.3,0-14.9,6.7-14.9,14.9c0,1.2,0.1,2.3,0.4,3.4
			c-12.4-0.6-23.4-6.6-30.8-15.6c-1.3,2.2-2,4.8-2,7.5c0,5.2,2.6,9.8,6.7,12.4c-2.5-0.1-4.8-0.7-6.8-1.9c0,0.1,0,0.1,0,0.2
			c0,7.2,5.2,13.3,12,14.7c-1.3,0.3-2.6,0.5-3.9,0.5c-1,0-1.9-0.1-2.8-0.3c1.9,5.9,7.4,10.3,14,10.4c-5.1,4-11.6,6.4-18.6,6.4
			c-1.2,0-2.4-0.1-3.6-0.2C36.4,94.2,44.2,96.7,52.7,96.7"/>
	</g>
</g>
</svg>
